<svg width="18" height="18" viewBox="0 0 18 18" fill="none" xmlns="http://www.w3.org/2000/svg">
<g id="ring-solid 1">
<path id="Vector" d="M9 2.25C3.8693 2.25 0 4.42652 0 7.3125V10.7624C0 13.5169 4.02961 15.75 9 15.75C13.9704 15.75 18 13.5169 18 10.7624V7.3125C18 4.42652 14.1307 2.25 9 2.25ZM9 4.5C12.728 4.5 15.75 5.7593 15.75 7.3125C15.75 7.63805 15.6104 7.94953 15.3664 8.24027C13.7865 7.31988 11.5393 6.75 9 6.75C6.46066 6.75 4.21348 7.31988 2.63355 8.24027C2.38957 7.94953 2.25 7.63805 2.25 7.3125C2.25 5.7593 5.27203 4.5 9 4.5ZM4.23387 9.30375C5.45062 8.7866 7.08891 8.4375 9 8.4375C10.9111 8.4375 12.5494 8.7866 13.7661 9.30375C12.5452 9.81106 10.8608 10.125 9 10.125C7.13918 10.125 5.45484 9.81106 4.23387 9.30375Z" fill="#5A6A7E"/>
</g>
</svg>
